<svg width="40" height="40" viewBox="0 0 40 40" fill="none" xmlns="http://www.w3.org/2000/svg">
<path d="M19.0193 7.39404C18.8589 7.11733 18.5115 6.98246 18.2456 6.95483C17.9273 6.96003 17.6374 7.13811 17.4864 7.4209L14.375 13.2455L16.0068 15.1161L17.5155 12.683C17.8364 12.1659 18.6838 12.1659 19.0047 12.683L20.5135 15.1161L22.2852 13.0375L19.0193 7.39404Z" fill="#415167"/>
<path d="M23.75 15.5962L23.2335 14.7021L21.152 17.2304C20.9802 17.4679 20.7313 17.623 20.4102 17.5927C20.1192 17.5823 19.8522 17.4262 19.6977 17.1767L18.2451 14.8305L16.7925 17.1767C16.638 17.4263 16.371 17.5823 16.08 17.5927C16.0689 17.5936 16.0577 17.5936 16.0474 17.5936C15.7675 17.5936 15.504 17.4592 15.3382 17.2304L13.4435 14.9614L5.10463 30.4857C4.95869 30.7604 4.96555 31.0933 5.12438 31.361C5.2832 31.6297 5.56996 31.7935 5.879 31.7935H15.7786C15.5262 31.0756 15.5704 30.2742 15.9485 29.5982L23.75 15.5962Z" fill="#415167"/>
<path d="M26.9508 16.3034C26.6387 15.7454 25.7246 15.7454 25.4124 16.3034L23.5742 19.5865L26.1816 22.4494L28.7891 19.5865L26.9508 16.3034Z" fill="#415167"/>
<path d="M34.8866 30.4724L29.6612 21.2075L26.8278 24.383C26.6605 24.5847 26.4133 24.7016 26.1524 24.7016C25.8915 24.7016 25.6443 24.5847 25.4769 24.383L22.6436 21.2075L17.4767 30.4725C17.3231 30.7469 17.3257 31.0828 17.4836 31.3547C17.6415 31.6265 17.9298 31.7935 18.2422 31.7935H34.121C34.4334 31.7935 34.7218 31.6265 34.8797 31.3546C35.0376 31.0827 35.0402 30.7469 34.8866 30.4724Z" fill="#415167"/>
</svg>
