<svg width="79" height="80" viewBox="0 0 79 80" fill="none" xmlns="http://www.w3.org/2000/svg">
<path d="M69.2939 46.7328C67.8577 49.7281 64.7872 51.8031 61.2222 51.8031V46.7328H17.7778V51.8031C14.2115 51.8031 11.1423 49.7281 9.70606 46.7328H5V74.6194H74V46.7328H69.2939Z" fill="#C7A17A"/>
<path fill-rule="evenodd" clip-rule="evenodd" d="M71.2119 41.4464H75.0268C77.1301 41.4464 78.8417 43.1511 78.8417 45.2459V75.6427C78.8417 77.7374 77.1301 79.4421 75.0268 79.4421H3.81553C1.71225 79.4421 0.000640869 77.7374 0.000640869 75.6427V45.2471C0.000640869 43.1524 1.71225 41.4477 3.81553 41.4477H7.63042V40.1812C7.63042 36.0588 10.2106 32.3581 13.9886 30.8219V26.7426C10.2106 25.2063 7.63042 21.5057 7.63042 17.3833V16.1168C3.4226 16.1168 0.000640869 12.7087 0.000640869 8.5179C0.000640869 4.32711 3.4226 0.919006 7.63042 0.919006H71.2119C75.4197 0.919006 78.8417 4.32711 78.8417 8.5179C78.8417 12.7087 75.4197 16.1168 71.2119 16.1168V17.3833C71.2119 21.5057 68.6318 25.2076 64.8538 26.7426V30.8206C68.6318 32.3569 71.2119 36.0588 71.2119 40.1799V41.4464ZM62.3105 50.2067C65.9143 49.6013 68.6686 46.4718 68.6686 42.7129V40.1799C68.6686 37.4494 67.1554 34.9684 64.8538 33.6284V35.114C64.8538 35.6206 64.7495 36.1031 64.5676 36.5464C65.5366 37.4823 66.1254 38.7792 66.1254 40.1799V42.7129C66.1254 45.0698 64.5015 47.0557 62.3105 47.6192V50.2067ZM20.3467 16.1168V17.3833C20.3467 17.6784 20.2831 17.9646 20.1839 18.2369C19.5291 17.7113 18.7076 17.3833 17.8035 17.3833C16.8993 17.3833 16.0779 17.7113 15.423 18.2369C15.3238 17.9646 15.2602 17.6784 15.2602 17.3833V16.1168H20.3467ZM16.5318 21.1827V35.114C16.5318 35.8118 17.1028 36.3805 17.8035 36.3805C18.5041 36.3805 19.0751 35.8118 19.0751 35.114V21.1827C19.0751 20.4849 18.5041 19.9162 17.8035 19.9162C17.1028 19.9162 16.5318 20.4849 16.5318 21.1827ZM21.5738 20.7407C22.4017 19.8174 22.89 18.632 22.89 17.3833V16.1168H25.4332V17.3833C25.4332 20.1138 23.92 22.5948 21.6183 23.9348V21.1827C21.6183 21.0757 21.6043 20.972 21.5902 20.8682L21.5902 20.8682L21.5902 20.8682L21.5901 20.8681L21.5901 20.8681L21.5901 20.868L21.5901 20.868L21.5901 20.868L21.5901 20.8679C21.5844 20.8256 21.5786 20.7833 21.5738 20.7407ZM15.9965 38.4398C15.5489 38.9021 15.2602 39.5087 15.2602 40.1799V41.4464H20.3467V40.1799C20.3467 39.51 20.0581 38.9021 19.6104 38.4398C19.07 38.7323 18.4609 38.9134 17.8035 38.9134C17.146 38.9134 16.5369 38.7323 15.9965 38.4398ZM21.3322 36.5464C21.5141 36.1044 21.6183 35.6219 21.6183 35.114V33.6284C23.92 34.9696 25.4332 37.4507 25.4332 40.1799V41.4464H22.89V40.1799C22.89 38.7792 22.3012 37.4811 21.3322 36.5464ZM21.6183 26.7426V30.8206C25.3964 32.3569 27.9765 36.0575 27.9765 40.1812V41.4477H50.8658V40.1812C50.8658 36.0588 53.446 32.3569 57.224 30.8219V26.7426C53.446 25.2063 50.8658 21.5044 50.8658 17.3833V16.1168H27.9765V17.3833C27.9765 21.5057 25.3964 25.2063 21.6183 26.7426ZM59.7672 35.114V21.1827C59.7672 20.4849 60.3382 19.9162 61.0389 19.9162C61.7395 19.9162 62.3105 20.4849 62.3105 21.1827V35.114C62.3105 35.8118 61.7395 36.3805 61.0389 36.3805C60.3382 36.3805 59.7672 35.8118 59.7672 35.114ZM63.4194 18.2369C63.5185 17.9646 63.5821 17.6784 63.5821 17.3833V16.1168H58.4956V17.3833C58.4956 17.6784 58.5592 17.9646 58.6584 18.2369C59.3133 17.7113 60.1347 17.3833 61.0389 17.3833C61.943 17.3833 62.7645 17.7113 63.4194 18.2369ZM57.2685 20.7407C57.264 20.7778 57.2589 20.8146 57.2539 20.8514C57.2389 20.9604 57.224 21.0691 57.224 21.1827V23.9348C54.9223 22.5936 53.4091 20.1125 53.4091 17.3833V16.1168H55.9524V17.3833C55.9524 18.6333 56.4407 19.8174 57.2685 20.7407ZM57.224 33.6284C54.9223 34.9684 53.4091 37.4494 53.4091 40.1799V41.4464H55.9524V40.1799C55.9524 38.7792 56.5411 37.4823 57.5101 36.5464C57.3283 36.1031 57.224 35.6206 57.224 35.114V33.6284ZM58.4956 40.1799C58.4956 39.5087 58.7843 38.9021 59.2319 38.4398C59.7723 38.7323 60.3814 38.9134 61.0389 38.9134C61.6963 38.9134 62.3054 38.7323 62.8459 38.4398C63.2935 38.9021 63.5821 39.51 63.5821 40.1799V41.4464H58.4956V40.1799ZM64.8538 23.9348C67.1554 22.5948 68.6686 20.1138 68.6686 17.3833V14.8503C68.6686 11.0914 65.9143 7.96191 62.3105 7.35653V9.94395C64.5015 10.5088 66.1254 12.4946 66.1254 14.8503V17.3833C66.1254 18.6333 65.6371 19.8174 64.8092 20.742C64.8139 20.7834 64.8196 20.8248 64.8252 20.8662L64.8253 20.8666L64.8253 20.8669L64.8254 20.8673C64.8395 20.9711 64.8538 21.0753 64.8538 21.1827V23.9348ZM2.5439 8.5179C2.5439 5.72404 4.8252 3.45197 7.63042 3.45197H71.2119C74.0171 3.45197 76.2984 5.72404 76.2984 8.5179C76.2984 11.3118 74.0171 13.5838 71.2119 13.5838H71.1242C70.4947 8.59388 66.2169 4.71845 61.0389 4.71845H59.7672V12.3173H61.0389C61.9761 12.3173 62.7874 12.8303 63.2286 13.5838H15.6137C16.055 12.8303 16.8663 12.3173 17.8035 12.3173H19.0751V4.71845H17.8035C12.6254 4.71845 8.34762 8.59388 7.71816 13.5838H7.63042C4.8252 13.5838 2.5439 11.3118 2.5439 8.5179ZM10.1737 16.1168V17.3833C10.1737 20.1138 11.6869 22.5948 13.9886 23.9348V21.1827C13.9886 21.0702 14.0034 20.9619 14.0184 20.8532C14.0235 20.8162 14.0286 20.7792 14.0331 20.742C13.2052 19.8174 12.7169 18.632 12.7169 17.3833V14.8503C12.7169 12.4934 14.3408 10.5075 16.5318 9.94395V7.35653C12.928 7.96191 10.1737 11.0914 10.1737 14.8503V16.1168ZM10.1737 40.1799C10.1737 37.4494 11.6869 34.9684 13.9886 33.6284V35.114C13.9886 35.6219 14.0928 36.1031 14.2747 36.5464C13.3057 37.4823 12.7169 38.7792 12.7169 40.1799V42.7129C12.7169 45.0686 14.3408 47.0544 16.5318 47.6192V50.2067C12.928 49.6013 10.1737 46.4718 10.1737 42.7129V41.4464V40.1799ZM75.0268 76.9079C75.7275 76.9079 76.2984 76.3392 76.2984 75.6414V45.2459C76.2984 44.548 75.7275 43.9794 75.0268 43.9794H71.1242C70.4947 48.9693 66.2169 52.8447 61.0389 52.8447H59.7672V45.2459H61.0389C61.9761 45.2459 62.7874 44.7329 63.2286 43.9794H15.6137C16.055 44.7329 16.8663 45.2459 17.8035 45.2459H19.0751V52.8447H17.8035C12.6254 52.8447 8.34762 48.9693 7.71816 43.9794H3.81553C3.11486 43.9794 2.5439 44.548 2.5439 45.2459V75.6414C2.5439 76.3392 3.11486 76.9079 3.81553 76.9079H75.0268Z" fill="#232C38"/>
<path d="M41.4799 51.002V51.006H41.4839L41.4799 51.002Z" fill="#232C38"/>
<path fill-rule="evenodd" clip-rule="evenodd" d="M41.6912 51.2249C41.7381 51.2764 41.7849 51.3278 41.8334 51.3782C46.9874 48.3842 53.0988 48.6742 56.7586 52.2191C58.7003 54.1024 59.7698 56.7265 59.7698 59.6078C59.7698 63.2755 58.076 67.0217 55.1232 69.884C52.079 72.8362 48.1941 74.3597 44.5674 74.3597C41.7063 74.3597 39.0053 73.4111 37 71.4684L37.0051 71.462C36.5244 71.519 36.0412 71.557 35.549 71.557C31.9224 71.557 28.0388 70.0334 24.9932 67.0813C22.0405 64.2178 20.3467 60.4715 20.3467 56.8038C20.3467 53.9225 21.4162 51.2984 23.3579 49.4164C27.9027 45.009 36.0323 45.7208 41.4799 51.002C41.554 51.0743 41.6226 51.1496 41.6912 51.2249ZM39.706 52.8169C37.1449 50.3333 33.9023 49.0402 30.9305 49.0402C29.1807 49.0402 27.539 49.5076 26.1682 50.4232L42.145 65.9123C43.0835 64.623 43.5819 63.0475 43.5819 61.2782C43.5819 58.2894 42.1691 55.2055 39.706 52.8169ZM26.7659 65.2677C24.3015 62.8791 22.89 59.7952 22.89 56.8063C22.89 55.037 23.3872 53.4615 24.3269 52.1735L40.31 67.6689C36.6159 70.1436 30.8364 69.214 26.7659 65.2677ZM40.0849 70.6553C43.7867 72.8995 49.3793 71.9142 53.3468 68.0691C55.8112 65.6805 57.224 62.5967 57.2227 59.6078C57.2227 57.8385 56.7242 56.2617 55.7858 54.9737L53.8542 56.8468L52.079 55.032L53.9419 53.226C51.1494 51.3668 47.1132 51.425 43.4993 53.3741C45.0952 55.6576 46.0031 58.2514 46.0998 60.8286L50.5619 56.5023L52.3371 58.3185L45.483 64.9637C44.9756 66.367 44.1834 67.6309 43.1152 68.6669C42.2276 69.5268 41.1989 70.1816 40.0849 70.6553Z" fill="#232C38"/>
<rect x="24.1616" y="5.98492" width="25.4326" height="2.53296" fill="#232C38"/>
<rect x="52.1375" y="5.98492" width="2.54326" height="2.53296" fill="#232C38"/>
</svg>
