<svg width="75" height="82" viewBox="0 0 75 82" fill="none" xmlns="http://www.w3.org/2000/svg">
<path d="M9 18.1429V18.8997C9 24.6857 12.0033 30.0751 16.9719 33.2041H42.0281C46.9967 30.0751 50 24.6857 50 18.8997V18.1429H9Z" fill="#C7A17A"/>
<path fill-rule="evenodd" clip-rule="evenodd" d="M67.2574 0.069397C71.5271 0.069397 74.9994 3.55583 74.9994 7.84293C74.9994 11.2205 72.8406 14.0929 69.8381 15.163V80.3946H5.32193C2.47548 80.3946 0.160645 78.0703 0.160645 75.2123C0.160645 72.3542 2.47548 70.0299 5.32193 70.0299H15.7877C14.6445 68.9079 13.8032 67.4828 13.3787 65.8866L9.73355 64.6688C7.09484 63.7852 5.32193 61.3145 5.32193 58.5225V50.4458C5.32193 47.6538 7.09355 45.1844 9.73226 44.3008L13.0639 43.1866V42.8238C13.0639 42.2525 13.1942 41.7135 13.4161 41.2251C11.7077 40.5786 10.4832 38.9319 10.4832 36.9937C10.4832 34.9324 11.8677 33.208 13.7452 32.6586C10.0394 29.1372 7.90258 24.2347 7.90258 18.9889V15.6165C3.6329 15.6165 0.160645 12.13 0.160645 7.84293C0.160645 3.55583 3.6329 0.069397 7.90258 0.069397H24.6768H37.58H54.3542H67.2574ZM38.8703 3.95616C38.8703 3.2423 38.291 2.66058 37.58 2.66058H24.6768C23.9658 2.66058 23.3865 3.2423 23.3865 3.95616C23.3865 4.67003 23.9658 5.25175 24.6768 5.25175H37.58C38.291 5.25175 38.8703 4.67003 38.8703 3.95616ZM2.74129 7.84293C2.74129 4.98486 5.05613 2.66058 7.90258 2.66058H21.0432C20.8987 3.06739 20.8058 3.50012 20.8058 3.95616C20.8058 6.09907 22.5426 7.84293 24.6768 7.84293H37.58C39.7142 7.84293 41.451 6.09907 41.451 3.95616C41.451 3.50012 41.3581 3.06739 41.2136 2.66058H54.3542C57.2006 2.66058 59.5155 4.98486 59.5155 7.84293C59.5155 10.701 57.2006 13.0253 54.3542 13.0253H7.90258C5.05613 13.0253 2.74129 10.701 2.74129 7.84293ZM54.3542 33.7547H59.5155V28.5724H54.3542V33.7547ZM54.3542 44.1194H59.5155V49.3018H54.3542V44.1194ZM54.3542 41.5283H59.5155V36.3459H54.3542V41.5283ZM51.7735 25.9812V33.7547V44.1194V51.893H59.5155V70.0312H43.8884C45.5658 68.3832 46.6123 66.09 46.6123 63.5533V42.8238C46.6123 42.2525 46.4819 41.7135 46.26 41.2251C47.9684 40.5773 49.1929 38.9319 49.1929 36.9937C49.1929 34.9337 47.8084 33.2093 45.931 32.6586C49.6368 29.1359 51.7735 24.2334 51.7735 18.9889V15.6165H54.3542H59.5155V25.9812H51.7735ZM49.1929 18.9889V15.6165H10.4832V18.9889C10.4832 20.0474 10.6148 21.08 10.8097 22.0944H16.9348C20.4923 22.0944 23.3865 25.0004 23.3865 28.5724V32.4591H42.0355C46.5168 29.4313 49.1929 24.4291 49.1929 18.9889ZM11.5181 24.6856H16.9348C19.069 24.6856 20.8058 26.4295 20.8058 28.5724V32.4591H17.6406C14.7929 30.5339 12.6806 27.8144 11.5181 24.6856ZM44.6768 35.0503H14.9994C13.9323 35.0503 13.0639 35.9222 13.0639 36.9937C13.0639 38.0651 13.9323 38.9371 14.9994 38.9371H44.6768C45.7439 38.9371 46.6123 38.0651 46.6123 36.9937C46.6123 35.9222 45.7439 35.0503 44.6768 35.0503ZM7.90258 58.5225V50.4458C7.90258 48.7706 8.96581 47.2884 10.549 46.7572L13.0639 45.9164V63.0532L10.549 62.2123C8.96581 61.6798 7.90258 60.1977 7.90258 58.5225ZM15.6445 42.8238V63.5533C15.6445 67.1252 18.5387 70.0312 22.0961 70.0312H37.58C41.1374 70.0312 44.0316 67.1252 44.0316 63.5533V42.8238C44.0316 42.1087 43.4523 41.5283 42.7413 41.5283H16.9348C16.2239 41.5283 15.6445 42.1087 15.6445 42.8238ZM67.2574 77.8047H5.32193C3.89871 77.8047 2.74129 76.6426 2.74129 75.2136C2.74129 73.7845 3.89871 72.6224 5.32193 72.6224H22.0961H37.58H62.0961V51.893V44.1194V33.7547V25.9812V15.6165H67.2574V77.8047ZM60.109 13.0253H67.2574C70.1039 13.0253 72.4187 10.701 72.4187 7.84293C72.4187 4.98486 70.1039 2.66058 67.2574 2.66058H60.109C61.34 4.03779 62.0961 5.85032 62.0961 7.84293C62.0961 9.83555 61.34 11.6481 60.109 13.0253Z" fill="#151D28"/>
<rect x="38.8703" y="44.1194" width="2.58065" height="2.59118" fill="#333333"/>
<rect x="18.2252" y="44.1194" width="18.0645" height="2.59118" fill="#333333"/>
</svg>
