<svg width="80" height="82" viewBox="0 0 80 82" fill="none" xmlns="http://www.w3.org/2000/svg">
<rect x="2" y="49.1578" width="41.2203" height="26.2177" fill="#C7A17A"/>
<path d="M43.2204 57.0231H78V28.1837H39.356V36.049H43.2204V57.0231Z" fill="#C7A17A"/>
<path fill-rule="evenodd" clip-rule="evenodd" d="M80 9.13852V3.95616C80 1.81326 78.2632 0.069397 76.129 0.069397H40C37.8658 0.069397 36.129 1.81326 36.129 3.95616V9.13852C36.129 10.2825 36.6335 11.3022 37.4194 12.0147V33.7547H3.87097C1.73677 33.7547 0 35.4986 0 37.6415V73.918C0 77.4899 2.89419 80.3959 6.45161 80.3959H37.4194C37.8606 80.3959 38.2929 80.3506 38.7097 80.2651V80.3959H76.129C78.2632 80.3959 80 78.6521 80 76.5092V71.3268C80 70.1828 79.4955 69.1632 78.7097 68.4506V12.0147C79.4955 11.3022 80 10.2825 80 9.13852ZM77.4194 3.95616V9.13852C77.4194 9.85239 76.84 10.4341 76.129 10.4341H70.9677V2.66058H76.129C76.84 2.66058 77.4194 3.2423 77.4194 3.95616ZM47.7419 2.66058V10.4341H52.9032V2.66058H47.7419ZM55.4839 2.66058H60.6452V10.4341H55.4839V2.66058ZM68.3871 2.66058H63.2258V10.4341H68.3871V2.66058ZM38.7097 3.95616C38.7097 3.2423 39.289 2.66058 40 2.66058H45.1613V10.4341H40C39.289 10.4341 38.7097 9.85239 38.7097 9.13852V3.95616ZM2.58065 73.918C2.58065 76.0609 4.31742 77.8047 6.45161 77.8047H37.4194C39.5536 77.8047 41.2903 76.0609 41.2903 73.918V44.1194H38.7097V41.5283H41.2903V37.6415C41.2903 36.9276 40.711 36.3459 40 36.3459H3.87097C3.16 36.3459 2.58065 36.9276 2.58065 37.6415V41.5283H36.129V44.1194H2.58065V73.918ZM77.4194 76.5092C77.4194 77.2243 76.84 77.8047 76.129 77.8047H42.5471C43.3665 76.719 43.871 75.382 43.871 73.918V70.0312H76.129C76.84 70.0312 77.4194 70.6116 77.4194 71.3268V76.5092ZM43.871 67.44H76.129V13.0253H40V33.7547C42.1342 33.7547 43.871 35.4986 43.871 37.6415V67.44Z" fill="#151D28"/>
<path fill-rule="evenodd" clip-rule="evenodd" d="M55.52 51.8761C58.5006 51.8761 61.7871 50.5041 64.3961 47.8857C68.8839 43.3796 69.6942 36.8628 66.2026 33.357C62.7109 29.8511 56.2206 30.6647 51.7342 35.1708C47.2477 39.6768 46.4374 46.1937 49.9277 49.6982C51.3884 51.1661 53.3742 51.8761 55.52 51.8761ZM62.5716 46.0537C59.529 49.1074 55.4361 50.1154 52.7948 48.6514L65.16 36.2358C66.6155 38.8891 65.6142 42.9974 62.5716 46.0537ZM60.5935 33.7417C58.3006 33.7417 55.6761 34.8754 53.5574 37.0027C50.5148 40.059 49.5135 44.1673 50.969 46.8194L63.3187 34.4193C62.5174 33.9762 61.5922 33.7417 60.5935 33.7417Z" fill="#151D28"/>
<path fill-rule="evenodd" clip-rule="evenodd" d="M15.6039 54.6046C11.1161 59.1107 10.3058 65.6275 13.7974 69.1333C15.2581 70.6012 17.2439 71.3112 19.3897 71.3112C22.3703 71.3112 25.6568 69.9392 28.2658 67.3208C32.7536 62.8148 33.5639 56.2979 30.0723 52.7921C26.582 49.2836 20.0916 50.0985 15.6039 54.6046ZM17.4284 56.4366C19.5471 54.3105 22.1729 53.1769 24.4645 53.1769C25.4632 53.1769 26.3884 53.4114 27.1897 53.8545L14.84 66.2545C13.3845 63.6012 14.3858 59.4929 17.4284 56.4366ZM16.6658 68.0852C19.3071 69.5492 23.4 68.5413 26.4426 65.4876C29.4852 62.4313 30.4865 58.3229 29.031 55.6696L16.6658 68.0852Z" fill="#151D28"/>
</svg>
