<svg width="80" height="82" viewBox="0 0 80 82" fill="none" xmlns="http://www.w3.org/2000/svg">
<path d="M21.9661 32.7446C21.9661 28.9856 24.8502 25.9373 28.4068 25.9373H1.35593V36.829H23.2542L23.2671 36.8072C22.4607 35.6704 21.9661 34.2749 21.9661 32.7446Z" fill="#C7A17A"/>
<rect x="50.3051" y="24.5758" width="28.339" height="13.6147" fill="#C7A17A"/>
<path fill-rule="evenodd" clip-rule="evenodd" d="M56.3432 9.13852C52.9084 3.69834 46.8748 0.069397 40 0.069397C33.1252 0.069397 27.0903 3.69834 23.6568 9.13852H0V19.5032V45.415V80.3959H23.2258H56.7742H80V45.415V19.5032V9.13852H56.3432ZM40 2.66058C49.249 2.66058 56.7742 10.2165 56.7742 19.5032V22.0944H77.4193V42.8238H56.7742H47.2826C49.92 40.6848 51.6129 37.416 51.6129 33.7547V22.0944H28.3871V24.6856C24.1174 24.6856 20.6452 28.172 20.6452 32.4591C20.6452 36.7462 24.1174 40.2327 28.3871 40.2327H30.351C31.0052 41.2121 31.8052 42.0841 32.7174 42.8238H23.2258H2.58065V22.0944H23.2258V19.5032C23.2258 10.2165 30.751 2.66058 40 2.66058ZM25.8065 45.415V50.5974H54.1936V45.415H25.8065ZM30.9677 33.7547V24.6856H49.0323V33.7547C49.0323 38.7557 44.9806 42.8238 40 42.8238C35.0194 42.8238 30.9677 38.7557 30.9677 33.7547ZM28.3871 37.6415H29.0645C28.6335 36.4236 28.3871 35.119 28.3871 33.7547V27.2768C25.5406 27.2768 23.2258 29.6011 23.2258 32.4591C23.2258 35.3172 25.5406 37.6415 28.3871 37.6415ZM2.58065 16.9121H15.4839V14.3209H2.58065V11.7297H22.2723C21.9084 12.5641 21.6103 13.4308 21.3652 14.3209H18.0645V16.9121H20.8374C20.7239 17.762 20.6452 18.6222 20.6452 19.5032H2.58065V16.9121ZM2.58065 45.415V77.8047H23.2258V45.415H2.58065ZM25.8065 53.1886H38.7097V77.8047H25.8065V53.1886ZM41.2903 53.1886V77.8047H54.1935V53.1886H41.2903ZM77.4194 77.8047H56.7742V45.415H77.4194V77.8047ZM59.1626 16.9121C59.2761 17.762 59.3548 18.6222 59.3548 19.5032H77.4194V16.9121H64.5161V14.3209H77.4194V11.7297H57.7277C58.0916 12.5641 58.3884 13.4308 58.6348 14.3209H61.9355V16.9121H59.1626Z" fill="#232C38"/>
<path d="M41.2903 19.5033H43.871V17.2178C43.871 15.9248 44.5871 14.7627 45.7381 14.1849C47.7703 13.1639 49.0323 11.1143 49.0323 8.83408V6.54736H46.4516V8.83278C46.4516 10.1258 45.7355 11.2879 44.5845 11.8658C42.5523 12.8867 41.2903 14.9363 41.2903 17.2165V19.5033Z" fill="#232C38"/>
<path d="M36.129 17.2178C36.129 15.9248 36.8452 14.7627 37.9961 14.1849C40.0284 13.1639 41.2903 11.1143 41.2903 8.83408V6.54736H38.7097V8.83278C38.7097 10.1258 37.9935 11.2879 36.8426 11.8658C34.8103 12.8867 33.5484 14.9363 33.5484 17.2165V19.5033H36.129V17.2178Z" fill="#232C38"/>
<rect x="33.5484" y="60.9621" width="2.58065" height="5.18236" fill="#232C38"/>
<rect x="43.871" y="60.9621" width="2.58065" height="5.18236" fill="#232C38"/>
</svg>
